<?xml version="1.0" standalone="no"?>
<!DOCTYPE svg PUBLIC "-//W3C//DTD SVG 20010904//EN"
 "http://www.w3.org/TR/2001/REC-SVG-20010904/DTD/svg10.dtd">
<svg version="1.0" xmlns="http://www.w3.org/2000/svg"
 width="4000.000000pt" height="3000.000000pt" viewBox="0 0 2000.000000 1500.000000"
 preserveAspectRatio="xMidYMid meet">

<g transform="translate(0.000000,1500.000000) scale(0.100000,-0.100000)"
fill="#FF0000" stroke="none">
<path d="M5582 12034 l3 -147 45 -13 c25 -6 113 -31 195 -54 171 -47 337 -122
432 -194 134 -101 249 -250 320 -412 15 -34 182 -492 373 -1016 l345 -953
1052 -3 1052 -2 -261 772 c-425 1260 -403 1184 -403 1388 0 117 2 129 28 182
58 119 160 175 453 249 109 28 216 55 237 60 l37 10 0 139 0 140 -1955 0
-1956 0 3 -146z"/>
<path d="M12310 12040 l0 -139 73 -21 c389 -114 458 -141 521 -205 20 -19 43
-50 52 -68 36 -69 28 -237 -21 -428 -13 -53 -164 -507 -335 -1010 -170 -504
-310 -918 -310 -922 0 -4 115 -6 256 -5 l256 3 332 980 c183 539 351 1024 374
1078 98 232 190 345 344 422 76 37 137 57 328 104 l235 57 3 147 3 147 -1056
0 -1055 0 0 -140z"/>
<path d="M5765 8676 c-418 -68 -654 -343 -615 -717 20 -198 99 -332 273 -462
105 -78 192 -127 384 -216 205 -94 273 -134 341 -200 141 -140 132 -411 -18
-543 -85 -75 -184 -108 -327 -108 -154 0 -263 38 -343 120 -38 39 -67 86 -120
198 -39 81 -78 163 -88 182 -15 32 -21 35 -65 38 -32 2 -49 -1 -52 -10 -2 -7
-8 -114 -13 -238 -10 -262 -19 -238 110 -290 303 -119 690 -143 963 -60 240
74 420 251 470 461 19 82 19 246 0 328 -44 185 -168 325 -408 460 -32 19 -137
68 -233 111 -97 43 -200 93 -230 112 -171 103 -243 228 -232 403 15 224 219
362 487 328 157 -20 188 -49 314 -300 l92 -183 53 0 c28 0 52 3 53 8 0 4 6 99
12 211 l12 204 -45 28 c-66 42 -180 88 -289 116 -119 31 -358 40 -486 19z"/>
<path d="M13805 8628 c-3 -7 -159 -461 -349 -1009 -189 -548 -351 -1009 -359
-1026 -28 -52 -83 -92 -162 -115 l-75 -22 0 -38 0 -38 260 0 260 0 0 38 c0 38
-1 39 -54 55 -65 21 -106 63 -106 109 0 17 36 140 81 274 l80 244 374 0 374 0
76 -232 c103 -318 102 -356 -15 -399 -57 -21 -60 -23 -60 -55 l0 -34 436 0
435 0 -3 36 c-3 34 -7 38 -44 49 -64 19 -103 46 -134 95 -17 28 -163 439 -375
1063 l-348 1017 -144 0 c-106 0 -145 -3 -148 -12z m130 -926 c86 -266 155
-485 153 -488 -3 -2 -154 -3 -335 -2 l-330 3 171 496 c94 273 174 492 177 485
4 -6 78 -228 164 -494z"/>
<path d="M2862 8593 c3 -36 5 -38 63 -58 82 -28 121 -53 151 -96 13 -20 184
-476 380 -1015 195 -538 362 -998 371 -1021 l16 -43 121 0 122 0 328 973 c181
534 342 1006 357 1048 39 103 75 135 177 159 52 12 52 12 52 51 l0 39 -255 0
-255 0 0 -37 c0 -38 0 -38 60 -56 84 -24 104 -47 97 -106 -5 -37 -499 -1516
-511 -1528 -8 -9 -500 1477 -504 1522 -4 47 -2 53 26 77 17 14 55 30 91 38
l61 13 0 38 0 39 -476 0 -475 0 3 -37z"/>
<path d="M6850 8591 c0 -37 2 -39 44 -51 24 -7 58 -21 76 -31 62 -38 60 2 60
-1011 0 -909 0 -924 -20 -956 -18 -30 -70 -61 -142 -85 -13 -5 -18 -17 -18
-42 l0 -35 425 0 425 0 0 38 c0 37 -2 39 -42 52 -24 7 -56 21 -72 33 -55 39
-56 47 -56 532 l0 445 420 0 420 0 0 -437 c0 -271 -4 -452 -10 -475 -13 -44
-56 -80 -117 -99 -41 -12 -43 -14 -43 -51 l0 -38 425 0 425 0 0 35 c0 25 -5
37 -17 42 -73 24 -125 55 -143 85 -20 32 -20 47 -20 963 0 884 1 931 18 960
18 30 51 51 125 79 33 13 37 19 37 50 l0 36 -425 0 -425 0 0 -39 c0 -37 3 -40
38 -51 64 -21 99 -48 116 -90 14 -35 16 -98 16 -450 l0 -410 -420 0 -420 0 0
408 c0 248 4 421 10 444 13 44 45 72 112 95 46 17 48 19 48 55 l0 38 -425 0
-425 0 0 -39z"/>
<path d="M9192 8593 c3 -35 6 -38 67 -62 117 -47 106 61 106 -1026 0 -1087 11
-978 -106 -1027 -60 -25 -64 -29 -67 -62 l-3 -36 849 0 849 0 7 163 c3 89 9
213 13 275 l6 113 -52 -3 -53 -3 -69 -168 c-38 -93 -78 -184 -90 -203 -39 -64
-41 -64 -429 -64 l-350 0 0 495 0 495 190 0 c145 0 198 -3 218 -14 30 -16 77
-89 118 -183 l27 -63 43 0 44 0 -2 318 -3 317 -37 3 -37 3 -45 -93 c-56 -118
-89 -156 -141 -168 -22 -5 -115 -10 -207 -10 l-168 0 0 465 0 465 306 0 c331
0 348 -2 387 -56 10 -13 54 -104 97 -202 l79 -177 52 -3 52 -3 -7 158 c-3 87
-9 211 -13 276 l-6 117 -814 0 -814 0 3 -37z"/>
<path d="M11080 8590 c0 -38 2 -40 43 -51 57 -15 101 -43 118 -76 20 -39 26
-1810 7 -1888 -15 -56 -52 -88 -125 -107 -41 -10 -43 -12 -43 -49 l0 -39 819
0 819 0 6 58 c3 31 10 154 16 272 6 118 12 230 15 248 l4 32 -53 0 -53 0 -67
-152 c-102 -231 -145 -295 -221 -329 -36 -17 -71 -19 -327 -19 l-288 0 0 943
c0 612 4 958 11 987 13 59 47 93 114 116 54 18 55 19 55 56 l0 38 -425 0 -425
0 0 -40z"/>
<path d="M15120 8591 l0 -39 67 -23 c117 -42 107 38 111 -894 2 -440 -1 -866
-5 -947 -11 -174 -18 -188 -115 -215 -58 -16 -58 -16 -58 -55 l0 -38 431 0
430 0 -3 37 c-3 36 -5 38 -60 55 -75 22 -104 42 -118 81 -8 22 -14 169 -17
460 l-6 428 123 -3 123 -3 251 -527 251 -527 308 -1 307 0 0 35 c0 30 -4 35
-27 41 -70 14 -120 40 -163 83 -36 38 -90 134 -280 505 -129 252 -236 462
-238 467 -2 5 3 9 11 9 8 0 61 23 118 52 138 68 227 155 290 282 39 79 43 95
47 178 6 111 -9 181 -55 271 -92 175 -292 283 -588 317 -50 5 -322 10 -612 10
l-523 0 0 -39z m1055 -95 c173 -64 245 -199 246 -463 0 -271 -87 -414 -286
-470 -27 -8 -119 -17 -202 -20 l-153 -6 0 295 c0 162 3 384 7 492 l6 198 166
-4 c129 -3 177 -8 216 -22z"/>
<path d="M8560 5764 c0 -3 235 -652 521 -1442 287 -791 526 -1449 531 -1465
l10 -27 505 2 506 3 493 1455 c271 800 493 1461 493 1468 1 10 -54 12 -256 10
l-258 -3 -57 -170 c-32 -93 -93 -271 -135 -394 l-77 -225 -88 265 c-48 145
-108 324 -134 397 l-46 132 -1004 0 c-552 0 -1004 -3 -1004 -6z"/>
</g>
</svg>
